<svg xmlns="http://www.w3.org/2000/svg" viewBox="0 0 64 64" role="img" aria-labelledby="title desc">
  <title id="title">Silent Bid Buddy</title>
  <desc id="desc">A navy bid paddle with a heart inside a warm gold ring.</desc>
  <defs>
    <linearGradient id="navy" x1="12" y1="8" x2="52" y2="58" gradientUnits="userSpaceOnUse">
      <stop stop-color="#24324A"/>
      <stop offset="1" stop-color="#101A2D"/>
    </linearGradient>
    <linearGradient id="gold" x1="8" y1="9" x2="56" y2="55" gradientUnits="userSpaceOnUse">
      <stop stop-color="#F8C35A"/>
      <stop offset="1" stop-color="#D99625"/>
    </linearGradient>
  </defs>
  <circle cx="32" cy="32" r="29" fill="#FFFDF8"/>
  <circle cx="32" cy="32" r="27" fill="none" stroke="url(#gold)" stroke-width="4"/>
  <circle cx="32" cy="28" r="18" fill="url(#navy)"/>
  <path d="M24.8 48.7 36.9 36.6a18 18 0 0 0-9.5-9.5L15.3 39.2a2.6 2.6 0 0 0 0 3.7l5.8 5.8a2.6 2.6 0 0 0 3.7 0Z" fill="url(#navy)"/>
  <path d="M32.1 35.8c-.6 0-1.1-.2-1.5-.6l-6.5-6.3c-3.1-3.1-3.2-7.7-.4-10.4 2.1-2 5.4-2.1 8.4.9 3-3 6.3-2.9 8.4-.9 2.8 2.7 2.7 7.3-.4 10.4l-6.5 6.3c-.4.4-.9.6-1.5.6Z" fill="#FFFFFF"/>
</svg>
